<?xml version="1.0" standalone="no"?>
<!DOCTYPE svg PUBLIC "-//W3C//DTD SVG 20010904//EN"
 "http://www.w3.org/TR/2001/REC-SVG-20010904/DTD/svg10.dtd">
<svg version="1.0" xmlns="http://www.w3.org/2000/svg"
 width="260.000000pt" height="260.000000pt" viewBox="0 0 260.000000 260.000000"
 preserveAspectRatio="xMidYMid meet">
<metadata>
Created by potrace 1.11, written by Peter Selinger 2001-2013
</metadata>
<g transform="translate(0.000000,260.000000) scale(0.100000,-0.100000)"
fill="#000000" stroke="none">
<path d="M1487 2568 c-8 -18 -18 -44 -22 -58 -3 -14 -12 -33 -20 -43 -13 -18
-15 -18 -62 3 -26 12 -58 26 -71 32 -27 14 -35 6 -51 -44 -7 -20 -20 -53 -29
-72 l-18 -36 -24 63 c-30 79 -34 83 -62 69 -13 -6 -45 -20 -72 -31 -46 -20
-49 -20 -62 -4 -7 10 -16 29 -19 43 -10 38 -36 90 -46 90 -5 0 -33 -11 -63
-25 -30 -14 -59 -25 -63 -25 -25 0 -32 -24 -17 -59 9 -20 22 -53 29 -73 l14
-38 -47 -20 c-26 -12 -55 -25 -66 -31 -23 -13 -28 -8 -57 66 -12 33 -26 64
-30 69 -8 9 -31 2 -116 -36 -52 -23 -55 -27 -38 -63 28 -61 45 -107 41 -114
-3 -3 -34 -18 -71 -31 -66 -25 -66 -25 -61 -58 3 -18 12 -47 20 -64 19 -37 19
-38 4 -38 -7 0 -24 -30 -38 -66 -13 -36 -28 -67 -31 -70 -7 -4 -51 12 -117 42
-19 9 -35 14 -37 12 -3 -4 -37 -82 -54 -125 -7 -17 -10 -36 -7 -41 3 -5 31
-19 63 -31 81 -29 87 -34 74 -57 -6 -11 -19 -40 -31 -66 l-20 -47 -38 14 c-20
7 -53 20 -73 29 -36 15 -58 8 -59 -18 -1 -6 -9 -29 -20 -51 -23 -47 -25 -79
-7 -92 6 -5 32 -17 57 -26 73 -28 73 -27 50 -83 -12 -27 -26 -59 -32 -72 -14
-27 -8 -33 54 -56 27 -10 48 -21 48 -26 0 -5 -17 -14 -37 -20 -51 -17 -59 -25
-45 -52 12 -26 52 -119 52 -123 0 -1 -24 -12 -52 -24 -76 -32 -98 -43 -98 -52
0 -5 11 -33 25 -63 14 -30 25 -59 25 -63 0 -25 24 -32 59 -17 20 9 53 22 73
29 l38 14 20 -47 c12 -26 25 -55 31 -66 13 -23 7 -28 -74 -57 -32 -12 -60 -26
-63 -31 -3 -5 0 -24 7 -41 17 -43 51 -121 54 -125 2 -2 18 3 37 12 66 30 110
46 117 42 3 -3 18 -34 31 -70 27 -70 31 -73 92 -54 34 10 46 9 96 -12 31 -12
60 -26 65 -30 7 -6 -5 -44 -39 -118 -9 -19 -14 -35 -12 -37 4 -3 82 -37 125
-54 17 -7 36 -10 41 -7 5 3 19 31 31 63 29 81 34 87 57 74 11 -6 40 -19 66
-31 l47 -20 -14 -38 c-7 -20 -20 -53 -29 -73 -15 -35 -8 -59 17 -59 4 0 33
-11 63 -25 30 -14 58 -25 63 -25 9 0 20 22 52 98 12 28 23 52 24 52 4 0 97
-40 123 -52 28 -14 32 -9 62 69 13 34 27 60 31 57 4 -2 15 -26 25 -52 23 -62
29 -68 56 -54 26 12 119 52 123 52 1 0 12 -24 24 -52 32 -76 43 -98 52 -98 5
0 33 11 63 25 30 14 59 25 63 25 25 0 32 24 17 59 -9 20 -22 53 -29 73 l-14
38 47 20 c26 12 55 25 65 31 11 6 20 9 22 7 10 -11 45 -90 45 -101 0 -7 6 -22
14 -32 12 -17 17 -17 47 -5 45 18 123 52 127 55 2 2 -3 18 -12 37 -30 66 -46
110 -42 117 3 3 34 18 71 31 66 25 66 25 61 58 -3 18 -11 45 -19 60 -13 27
-13 28 12 24 24 -3 28 3 51 63 13 37 28 68 31 71 7 4 53 -13 114 -41 36 -17
40 -14 63 38 38 85 45 108 36 116 -5 4 -36 18 -69 30 -74 29 -79 34 -66 57 6
11 19 40 31 66 l20 47 38 -14 c20 -7 53 -20 73 -29 35 -15 59 -8 59 17 0 4 11
33 25 63 14 30 25 58 25 63 0 10 -52 36 -90 46 -14 3 -33 12 -43 20 -18 13
-18 15 3 62 12 26 26 58 32 70 14 29 6 38 -47 53 -25 7 -45 16 -45 21 0 4 17
13 38 19 50 17 58 25 44 52 -6 13 -20 45 -32 71 -21 47 -21 49 -3 62 10 8 29
17 43 20 14 4 40 14 58 22 36 17 36 22 1 100 -11 23 -19 46 -19 50 0 25 -24
32 -59 17 -20 -9 -53 -22 -74 -30 l-38 -14 -20 48 c-11 26 -25 55 -30 66 -13
23 -8 28 66 57 33 12 64 26 69 30 9 8 2 31 -36 116 -23 52 -27 55 -63 38 -61
-28 -107 -45 -114 -41 -3 3 -18 34 -31 71 -25 66 -25 66 -58 61 -18 -3 -46
-12 -62 -20 -29 -14 -30 -13 -30 7 0 18 -13 27 -66 47 -36 13 -67 28 -70 31
-4 7 13 53 41 114 17 36 14 40 -38 63 -85 38 -108 45 -116 36 -4 -5 -18 -36
-30 -69 -29 -74 -34 -79 -57 -66 -11 5 -40 19 -66 30 l-48 20 14 38 c8 21 21
54 30 74 15 35 8 59 -17 59 -4 0 -27 8 -50 19 -78 35 -83 35 -100 -1z m-213
-1157 c3 -5 16 -11 29 -15 13 -3 44 -15 70 -26 39 -17 45 -24 37 -38 -5 -9
-19 -41 -31 -70 -25 -60 -50 -80 -83 -64 -11 6 -42 20 -69 31 l-47 20 21 53
c11 29 26 68 32 86 10 31 30 42 41 23z"/>
</g>
</svg>
