<?xml version="1.0" standalone="no"?>
<!DOCTYPE svg PUBLIC "-//W3C//DTD SVG 20010904//EN"
 "http://www.w3.org/TR/2001/REC-SVG-20010904/DTD/svg10.dtd">
<svg version="1.0" xmlns="http://www.w3.org/2000/svg"
 width="400.000000pt" height="400.000000pt" viewBox="0 0 400.000000 400.000000"
 preserveAspectRatio="xMidYMid meet">
<metadata>
Created by potrace 1.11, written by Peter Selinger 2001-2013
</metadata>
<g transform="translate(0.000000,400.000000) scale(0.100000,-0.100000)"
fill="#000000" stroke="none">
<path d="M1483 3807 c-100 -41 -118 -57 -94 -82 5 -6 14 -28 21 -50 7 -22 21
-55 31 -73 20 -39 18 -68 -5 -66 -8 1 -14 -1 -11 -5 4 -7 -175 -85 -180 -79
-6 9 -45 99 -45 104 0 3 -11 30 -25 59 l-24 54 -107 -44 c-59 -25 -108 -45
-110 -45 -4 0 19 -64 39 -110 55 -126 55 -125 30 -116 -10 4 -14 4 -10 0 4 -4
-37 -26 -92 -49 l-99 -40 13 -33 c8 -17 11 -32 8 -32 -3 0 0 -7 7 -15 7 -8 9
-15 4 -15 -5 0 -2 -5 6 -10 13 -8 13 -10 -1 -10 -9 0 -19 3 -23 7 -7 7 -79 34
-82 30 -4 -5 -54 -118 -54 -123 0 -3 -9 -25 -20 -49 -23 -50 -8 -51 -150 9
-46 20 -85 36 -87 36 -4 0 -65 -140 -64 -147 1 -2 -8 -18 -18 -37 -21 -37 -24
-34 52 -65 15 -6 27 -16 27 -23 0 -9 3 -10 8 -2 5 8 24 3 63 -15 l57 -26 -16
-40 c-9 -22 -18 -42 -21 -45 -3 -3 -15 -31 -25 -63 -11 -32 -23 -60 -27 -63
-5 -3 -57 15 -116 40 l-107 44 -43 -101 c-45 -106 -50 -127 -32 -127 5 0 7 -5
3 -12 -4 -7 -3 -8 5 -4 6 4 20 4 32 1 15 -5 18 -12 14 -28 -5 -18 -4 -19 4 -5
7 10 19 14 31 11 21 -6 28 -33 8 -33 -6 0 -8 -3 -4 -7 4 -5 14 1 22 11 8 11
14 15 14 8 0 -6 6 -9 13 -6 8 3 25 -4 38 -16 21 -17 22 -22 9 -32 -8 -7 -16
-26 -17 -42 -1 -16 -8 -33 -15 -38 -7 -4 -10 -8 -6 -8 4 0 -2 -20 -13 -45 -20
-44 -18 -92 2 -79 6 3 28 -6 51 -21 22 -15 38 -22 34 -17 -3 6 18 1 48 -11
l53 -21 -56 -24 c-31 -12 -74 -30 -96 -39 -58 -23 -60 -27 -41 -75 71 -171 73
-182 40 -177 -4 0 -10 -3 -13 -8 -3 -5 -43 -24 -89 -43 -88 -36 -90 -39 -65
-100 6 -14 9 -28 6 -32 -2 -5 -1 -8 4 -8 4 0 14 -15 21 -32 7 -18 18 -41 23
-51 5 -10 7 -23 3 -28 -4 -8 1 -9 16 -4 17 5 21 4 16 -6 -4 -8 -2 -7 6 2 13
16 56 35 70 31 5 -1 8 2 8 7 0 5 10 7 23 4 18 -4 19 -3 7 6 -13 9 -13 11 3 12
26 2 30 4 56 18 17 9 26 10 34 2 6 -6 7 -11 3 -11 -5 0 -1 -11 8 -25 9 -14 14
-30 11 -35 -3 -6 -1 -10 5 -10 7 0 10 -6 7 -12 -2 -7 2 -17 8 -23 7 -5 19 -29
28 -52 14 -36 14 -42 1 -47 -10 -4 -13 -1 -9 7 4 6 1 5 -7 -4 -7 -8 -51 -31
-98 -51 -81 -33 -85 -37 -85 -66 0 -17 5 -30 10 -29 6 1 9 -8 9 -20 -1 -13 2
-20 6 -18 5 3 13 -9 19 -27 8 -23 8 -33 0 -39 -8 -4 -4 -9 10 -14 24 -7 27
-24 8 -44 -10 -11 -9 -12 3 -6 8 5 25 10 39 11 13 2 29 8 34 13 15 15 30 14
22 -1 -4 -7 1 -4 9 6 9 11 16 16 16 10 0 -5 5 -2 10 6 9 13 11 13 20 0 8 -13
10 -12 10 3 0 16 10 21 39 18 7 -2 10 2 7 7 -3 5 3 12 15 15 21 6 36 -14 24
-33 -4 -6 -1 -9 6 -8 7 2 13 -2 14 -9 0 -6 3 -15 7 -19 4 -4 3 -13 -4 -21 -9
-11 -8 -13 2 -11 7 2 17 -10 23 -27 5 -16 15 -33 20 -37 7 -4 6 -12 -3 -22
-11 -14 -10 -16 5 -9 14 5 17 3 13 -8 -4 -10 1 -15 13 -15 10 0 16 2 13 5 -2
3 8 10 23 17 21 8 32 8 42 0 12 -9 13 -8 8 7 -4 11 -2 17 8 17 12 0 13 -5 2
-27 -6 -16 -14 -30 -17 -33 -3 -3 -7 -14 -8 -25 -2 -11 -9 -23 -15 -27 -9 -6
-9 -8 1 -8 21 0 26 -2 47 -13 11 -6 22 -12 25 -12 21 -3 100 -39 100 -46 0 -5
7 -5 17 -2 12 5 14 3 8 -7 -6 -10 -4 -12 8 -7 21 8 21 4 3 -36 -12 -28 -26
-62 -31 -77 -1 -3 -7 -17 -13 -32 -29 -68 -32 -78 -21 -78 7 0 6 -6 -2 -17
-13 -17 -12 -17 4 -4 15 12 20 12 27 1 4 -7 6 -20 3 -29 -4 -14 -3 -14 5 -1 6
8 8 18 6 22 -8 12 5 10 34 -6 37 -19 84 -39 101 -42 7 -1 18 -7 24 -13 14 -14
27 -14 27 0 0 5 -6 7 -12 3 -10 -6 -10 -4 0 7 6 7 12 21 12 30 0 9 10 24 22
33 13 9 17 14 10 11 -14 -7 -17 11 -2 20 6 4 8 11 5 16 -4 5 -1 9 6 9 7 0 9 3
6 7 -4 3 -2 12 4 20 6 7 8 13 4 13 -5 0 2 9 15 20 13 12 18 20 10 20 -7 0 -11
2 -9 5 11 10 49 -8 49 -24 0 -13 2 -13 9 -3 7 11 15 8 36 -15 16 -15 23 -20
16 -10 -16 20 -3 22 24 3 11 -7 32 -16 46 -19 38 -9 42 -31 18 -85 -12 -26
-27 -63 -34 -82 -7 -19 -17 -34 -22 -33 -6 1 -8 -8 -6 -20 4 -18 23 -30 90
-57 47 -19 88 -41 91 -48 4 -11 6 -11 13 0 7 11 9 10 9 -1 0 -11 5 -10 20 4
11 10 17 22 14 26 -3 5 -1 9 3 9 5 0 9 9 10 21 1 12 10 28 20 36 10 8 12 12 6
8 -16 -7 -16 -1 -3 23 5 9 17 35 25 57 14 34 18 38 28 24 7 -9 18 -14 26 -11
8 3 11 0 7 -6 -3 -5 1 -13 10 -16 8 -3 12 -2 9 4 -3 6 -1 10 4 10 6 0 11 -8
11 -17 0 -15 2 -16 10 -3 6 9 10 11 10 3 0 -7 7 -10 15 -7 8 4 15 1 15 -7 0
-7 3 -10 6 -6 9 8 65 -14 59 -23 -3 -5 0 -12 6 -16 8 -4 9 -3 5 4 -9 15 6 16
22 2 8 -7 9 -7 3 1 -10 12 22 102 47 132 8 9 12 17 9 17 -3 0 -1 13 4 29 13
37 35 31 45 -12 4 -18 7 -35 6 -40 -1 -4 3 -7 9 -7 6 0 9 -6 6 -14 -3 -8 0
-17 8 -19 7 -3 16 -19 20 -36 8 -37 21 -47 40 -31 11 9 15 9 15 1 0 -6 5 -11
11 -11 5 0 8 4 4 9 -9 16 34 34 50 21 10 -8 15 -8 21 1 4 8 3 9 -4 5 -7 -4
-12 -3 -12 1 0 15 103 54 114 43 8 -8 29 -57 40 -95 2 -5 6 -18 10 -27 4 -9 4
-22 0 -29 -4 -8 -3 -9 5 -5 10 7 33 -31 26 -44 -2 -3 9 -14 24 -24 l26 -20
-18 21 c-17 20 -17 21 2 26 11 2 24 0 31 -7 8 -8 9 -6 4 8 -6 16 -4 18 14 14
12 -4 20 -3 17 2 -3 4 23 19 58 33 75 30 76 36 24 149 -47 102 -47 102 20 127
32 12 61 20 64 19 3 -2 13 5 23 15 19 19 41 23 30 5 -4 -6 -3 -8 4 -4 5 3 13
0 16 -6 3 -7 3 -2 0 11 -4 16 -3 21 5 17 6 -4 11 -1 11 6 0 7 14 -21 31 -62
52 -126 61 -144 81 -158 10 -7 15 -18 12 -24 -4 -7 -2 -8 5 -4 9 6 9 11 0 22
-6 8 -9 18 -5 21 4 4 11 1 16 -7 8 -13 10 -12 10 3 0 16 10 21 38 18 6 -1 12
3 12 10 0 8 4 8 15 -1 8 -7 12 -17 8 -23 -4 -6 -1 -7 6 -2 9 5 10 10 2 18 -14
14 -14 30 -1 22 6 -3 10 -1 10 5 0 7 7 10 15 6 8 -3 15 0 15 7 0 7 8 3 16 -8
16 -20 16 -19 9 4 -6 20 -4 23 12 19 18 -5 17 2 -13 71 -18 42 -34 83 -36 91
-2 8 -6 17 -9 20 -4 3 -9 14 -13 26 -5 16 1 24 29 37 19 9 35 12 35 7 0 -6 9
-1 21 11 16 16 23 18 35 8 12 -10 13 -9 8 5 -3 9 -1 16 5 16 10 0 15 -14 12
-32 -2 -13 6 -9 20 9 10 11 10 14 2 9 -8 -4 -13 -2 -13 7 0 8 13 20 29 25 24
9 28 15 24 33 -5 17 -3 20 8 14 12 -8 12 -6 0 8 -15 19 -26 23 -15 5 4 -7 3
-8 -5 -4 -7 4 -11 15 -9 24 2 10 -3 23 -12 30 -13 10 -12 11 5 5 11 -4 28 -16
37 -28 10 -11 17 -15 18 -7 0 6 -5 12 -12 12 -6 0 -9 3 -6 6 4 3 19 -1 36 -10
l29 -15 18 42 c10 23 19 47 19 52 1 6 7 9 13 8 7 -2 10 6 8 16 -5 29 24 81 43
74 13 -4 12 -1 -3 10 -17 14 -18 16 -3 17 28 0 48 -11 48 -29 0 -14 2 -14 10
-1 9 13 10 13 11 0 1 -8 1 -18 1 -21 -1 -3 6 -6 13 -6 11 0 12 4 4 14 -15 17
1 17 27 -2 12 -8 24 -11 28 -8 3 3 6 1 6 -6 0 -7 5 -9 10 -6 6 3 10 1 10 -5 0
-6 5 -8 10 -5 6 3 10 -1 10 -9 0 -8 4 -18 10 -21 6 -3 7 1 4 9 -6 15 12 22 40
17 5 -1 5 4 -1 11 -8 10 -6 23 7 51 10 21 20 41 22 45 2 4 6 6 10 5 3 -1 5 5
4 15 -2 9 3 32 11 51 8 18 13 35 11 37 -2 2 -49 22 -103 44 -98 41 -132 60
-106 60 7 0 9 5 5 12 -4 6 1 17 10 24 10 7 17 15 16 18 -4 15 12 66 20 66 5 0
7 7 4 15 -4 8 1 17 10 21 9 3 13 10 10 15 -3 5 0 17 6 26 11 17 11 17 6 -1 -6
-17 -5 -17 10 -5 14 11 18 11 21 1 3 -6 9 -10 14 -6 5 3 9 -3 10 -13 0 -10 3
-13 6 -5 2 6 9 12 14 12 6 0 7 -4 4 -10 -3 -6 1 -7 9 -4 11 4 16 0 16 -12 0
-16 2 -17 10 -4 6 9 10 11 10 3 0 -7 7 -10 17 -6 11 4 14 3 9 -6 -5 -8 -3 -12
5 -10 31 4 49 -2 49 -16 0 -23 16 -18 17 6 1 11 8 27 14 36 7 8 14 23 16 32 3
24 32 91 39 91 3 0 2 -4 -1 -10 -3 -5 -2 -10 3 -10 4 0 8 19 8 42 l-1 42 -100
41 c-55 23 -100 46 -100 51 1 31 18 73 27 68 6 -4 8 -2 5 3 -4 6 5 38 18 72
14 33 25 65 25 70 0 5 -27 19 -60 31 -33 12 -58 25 -56 29 3 4 -7 8 -22 9 -14
1 -29 7 -33 13 -3 6 -9 10 -13 10 -3 -1 -6 1 -6 4 0 3 3 5 6 4 4 0 10 3 13 8
10 16 93 45 86 31 -4 -7 0 -5 7 4 8 9 27 20 42 24 15 3 30 12 32 19 3 7 -7 41
-21 76 -15 35 -28 69 -29 74 -1 6 -5 16 -9 22 -22 35 -16 51 29 72 24 12 50
21 58 21 8 0 18 5 21 10 9 15 37 -9 28 -24 -3 -6 -2 -7 2 -3 12 10 15 38 4 31
-5 -3 -9 -1 -9 4 0 6 11 13 25 16 36 9 40 27 15 82 -13 26 -23 53 -24 59 -2 5
-11 29 -22 52 -21 49 -12 49 -147 -7 l-92 -39 -23 51 c-13 27 -21 52 -18 55 3
3 -2 12 -10 21 -9 8 -13 23 -11 33 3 10 0 17 -5 16 -6 -1 -12 12 -14 28 -4 29
-4 29 12 10 16 -20 16 -20 9 3 -7 23 9 32 18 10 4 -9 6 -8 6 3 1 10 31 28 81
48 75 31 106 51 81 51 -6 0 -11 4 -11 10 0 5 -11 33 -24 62 -13 29 -30 70 -37
91 -7 20 -18 37 -24 37 -6 0 -54 -18 -105 -40 -51 -22 -99 -40 -105 -40 -12 0
-48 88 -40 100 3 4 -1 10 -8 13 -7 3 -19 24 -27 47 -8 23 -19 44 -25 46 -6 3
-33 -4 -60 -16 -26 -11 -50 -18 -53 -15 -3 3 0 5 7 5 7 0 10 3 7 8 -2 4 4 25
14 47 21 45 20 46 -35 68 -22 8 -62 25 -90 38 -27 12 -54 23 -60 23 -5 1 -10
8 -10 16 0 8 6 14 14 12 12 -3 12 0 1 12 -8 11 -9 16 -1 16 6 0 10 3 9 8 -4
16 26 81 35 75 6 -3 7 -1 3 5 -4 6 0 28 9 48 8 20 14 38 13 39 -11 7 -209 85
-216 85 -4 0 -26 -43 -47 -95 -21 -52 -41 -92 -46 -90 -4 3 -5 -4 -2 -15 5
-17 -7 -15 -102 25 -59 25 -108 45 -110 45 -7 0 6 53 18 74 6 12 10 25 9 30
-2 5 5 5 15 2 14 -6 15 -4 6 5 -9 9 -7 22 8 57 11 25 18 49 16 55 -1 5 -50 28
-107 52 l-105 44 -25 -52 c-13 -29 -25 -54 -25 -57 -18 -78 -49 -125 -66 -99
-5 8 -9 11 -9 7 0 -4 -43 11 -95 32 l-96 39 -10 -27 c-22 -58 -34 -80 -41 -76
-4 3 -5 -3 -1 -12 3 -10 2 -15 -3 -12 -5 3 -9 -7 -10 -24 -1 -37 -21 -59 -34
-38 -6 8 -8 21 -5 28 2 6 0 12 -4 12 -5 0 -22 32 -37 71 -15 38 -31 72 -35 74
-4 3 -55 -15 -114 -39 l-107 -44 -14 36 c-8 20 -19 46 -24 57 -5 11 -18 42
-28 70 -11 27 -23 50 -28 52 -5 1 -55 -17 -111 -40z m522 -1617 c-4 -6 -10 -8
-15 -5 -4 3 -11 -2 -14 -11 -4 -10 -13 -13 -28 -9 -20 5 -21 4 -5 -5 13 -8 22
-7 39 4 20 14 24 14 46 0 19 -13 26 -13 40 -2 14 11 15 11 9 -6 -6 -16 -5 -17
8 -6 12 10 16 9 21 -4 3 -9 10 -16 16 -16 5 0 6 5 2 12 -4 7 -3 8 4 4 25 -15
33 -44 16 -60 -18 -19 -4 -22 15 -3 9 8 12 8 7 0 -3 -6 -2 -13 3 -15 4 -1 12
-14 16 -27 5 -18 4 -22 -5 -16 -9 5 -11 4 -6 -4 4 -6 12 -9 17 -6 8 6 11 -2 8
-22 -1 -5 -6 -7 -12 -5 -7 2 -6 -2 1 -11 6 -7 8 -18 3 -23 -5 -5 -16 -30 -25
-55 -17 -44 -21 -48 -95 -78 l-77 -32 -70 30 c-43 18 -70 36 -73 47 -2 10 -10
28 -18 41 -9 13 -12 23 -9 23 4 0 -1 11 -10 25 -16 25 -12 85 6 85 5 0 7 7 4
15 -6 14 6 20 29 16 5 -1 6 3 2 9 -3 6 -10 8 -15 5 -5 -3 -2 8 6 25 9 16 20
33 26 36 7 4 8 2 4 -4 -4 -7 -2 -12 3 -12 6 0 11 7 11 15 0 9 6 12 17 8 11 -4
14 -3 9 5 -5 8 3 14 24 18 17 4 33 11 36 15 3 5 12 9 20 9 8 0 12 -5 9 -10z
m51 -28 c-4 -3 -14 2 -24 12 -16 18 -16 18 6 6 13 -6 21 -14 18 -18z"/>
<path d="M1990 2150 c-13 -8 -12 -10 3 -10 9 0 17 5 17 10 0 12 -1 12 -20 0z"/>
<path d="M1916 2135 c-11 -8 -15 -15 -9 -15 6 0 16 7 23 15 16 19 11 19 -14 0z"/>
<path d="M2090 2131 c0 -7 -5 -9 -12 -5 -7 5 -8 3 -3 -5 5 -9 10 -10 18 -2 6
6 8 14 4 18 -4 3 -7 1 -7 -6z"/>
<path d="M1864 2111 c0 -11 5 -17 13 -14 10 4 11 9 2 19 -15 18 -15 18 -15 -5z"/>
<path d="M2119 2113 c-13 -16 -12 -17 4 -4 9 7 17 15 17 17 0 8 -8 3 -21 -13z"/>
<path d="M2155 2049 c-4 -6 -5 -12 -2 -15 2 -3 7 2 10 11 7 17 1 20 -8 4z"/>
<path d="M1810 1979 c0 -5 5 -7 10 -4 6 3 10 8 10 11 0 2 -4 4 -10 4 -5 0 -10
-5 -10 -11z"/>
<path d="M1386 3638 c3 -5 10 -6 15 -3 13 9 11 12 -6 12 -8 0 -12 -4 -9 -9z"/>
<path d="M1410 3579 c0 -5 5 -7 10 -4 6 3 10 8 10 11 0 2 -4 4 -10 4 -5 0 -10
-5 -10 -11z"/>
<path d="M936 3487 c3 -10 9 -15 12 -12 3 3 0 11 -7 18 -10 9 -11 8 -5 -6z"/>
<path d="M3606 2802 c-3 -5 1 -9 9 -9 8 0 15 4 15 9 0 4 -4 8 -9 8 -6 0 -12
-4 -15 -8z"/>
<path d="M462 2767 c10 -8 14 -18 10 -22 -4 -5 -1 -5 6 -1 17 10 15 14 -10 26
-21 10 -21 10 -6 -3z"/>
<path d="M3533 2765 c0 -7 6 -11 14 -8 7 3 13 6 13 8 0 2 -6 5 -13 8 -8 3 -14
-1 -14 -8z"/>
<path d="M3706 2327 c-16 -12 -16 -14 -3 -14 9 0 18 6 21 14 3 7 4 13 3 13 -2
0 -11 -6 -21 -13z"/>
<path d="M313 2305 c0 -8 4 -15 9 -15 4 0 8 4 8 9 0 6 -4 12 -8 15 -5 3 -9 -1
-9 -9z"/>
<path d="M3670 2280 c0 -5 5 -10 11 -10 5 0 7 5 4 10 -3 6 -8 10 -11 10 -2 0
-4 -4 -4 -10z"/>
<path d="M3659 2033 c-13 -16 -12 -17 4 -4 16 13 21 21 13 21 -2 0 -10 -8 -17
-17z"/>
<path d="M3600 2020 c-9 -6 -10 -10 -3 -10 6 0 15 5 18 10 8 12 4 12 -15 0z"/>
<path d="M425 2000 c3 -5 11 -10 16 -10 6 0 7 5 4 10 -3 6 -11 10 -16 10 -6 0
-7 -4 -4 -10z"/>
<path d="M293 1795 c0 -8 4 -12 9 -9 5 3 6 10 3 15 -9 13 -12 11 -12 -6z"/>
<path d="M3666 1718 c3 -5 10 -6 15 -3 13 9 11 12 -6 12 -8 0 -12 -4 -9 -9z"/>
<path d="M3810 1460 c0 -5 5 -10 11 -10 5 0 7 5 4 10 -3 6 -8 10 -11 10 -2 0
-4 -4 -4 -10z"/>
<path d="M3575 1410 c-4 -6 -10 -8 -15 -5 -5 3 -11 1 -14 -4 -8 -13 22 -7 36
7 7 7 9 12 6 12 -4 0 -10 -5 -13 -10z"/>
<path d="M451 1393 c7 -12 15 -20 18 -17 3 2 -3 12 -13 22 -17 16 -18 16 -5
-5z"/>
<path d="M3655 1371 c-3 -5 -2 -12 3 -15 5 -3 9 1 9 9 0 17 -3 19 -12 6z"/>
<path d="M310 1359 c0 -5 5 -7 10 -4 6 3 10 8 10 11 0 2 -4 4 -10 4 -5 0 -10
-5 -10 -11z"/>
<path d="M3695 1360 c3 -5 8 -10 11 -10 2 0 4 5 4 10 0 6 -5 10 -11 10 -5 0
-7 -4 -4 -10z"/>
<path d="M493 1315 c0 -8 4 -12 9 -9 5 3 6 10 3 15 -9 13 -12 11 -12 -6z"/>
<path d="M506 1282 c-3 -5 1 -9 9 -9 8 0 12 4 9 9 -3 4 -7 8 -9 8 -2 0 -6 -4
-9 -8z"/>
<path d="M3669 1083 c-13 -16 -12 -17 4 -4 16 13 21 21 13 21 -2 0 -10 -8 -17
-17z"/>
<path d="M3376 953 c-6 -14 -5 -15 5 -6 7 7 10 15 7 18 -3 3 -9 -2 -12 -12z"/>
<path d="M3497 929 c7 -7 15 -10 18 -7 3 3 -2 9 -12 12 -14 6 -15 5 -6 -5z"/>
<path d="M795 811 c-3 -5 -2 -12 3 -15 5 -3 9 1 9 9 0 17 -3 19 -12 6z"/>
<path d="M3293 795 c0 -8 4 -12 9 -9 5 3 6 10 3 15 -9 13 -12 11 -12 -6z"/>
<path d="M3246 762 c-3 -5 1 -9 9 -9 8 0 12 4 9 9 -3 4 -7 8 -9 8 -2 0 -6 -4
-9 -8z"/>
<path d="M790 696 c0 -2 8 -10 18 -17 15 -13 16 -12 3 4 -13 16 -21 21 -21 13z"/>
<path d="M830 686 c0 -2 7 -7 16 -10 8 -3 12 -2 9 4 -6 10 -25 14 -25 6z"/>
<path d="M870 676 c0 -2 9 -6 20 -9 11 -3 18 -1 14 4 -5 9 -34 13 -34 5z"/>
<path d="M926 643 c-6 -14 -5 -15 5 -6 7 7 10 15 7 18 -3 3 -9 -2 -12 -12z"/>
<path d="M3004 635 c-18 -15 -18 -15 0 -8 15 5 17 3 11 -8 -5 -8 -4 -11 0 -6
8 7 17 37 11 37 -1 0 -11 -7 -22 -15z"/>
<path d="M973 611 c0 -11 5 -18 9 -15 4 3 5 11 1 19 -7 21 -12 19 -10 -4z"/>
<path d="M1276 487 c3 -10 9 -15 12 -12 3 3 0 11 -7 18 -10 9 -11 8 -5 -6z"/>
<path d="M2755 490 c-4 -6 -11 -7 -17 -4 -7 4 -8 2 -4 -5 6 -9 11 -9 22 0 14
11 18 19 10 19 -3 0 -8 -5 -11 -10z"/>
<path d="M2654 475 c3 -23 12 -26 13 -5 1 11 -2 20 -7 20 -4 0 -7 -7 -6 -15z"/>
<path d="M1360 460 c-9 -6 -10 -10 -3 -10 6 0 15 5 18 10 8 12 4 12 -15 0z"/>
<path d="M1422 447 c10 -8 14 -18 10 -22 -4 -5 -1 -5 6 -1 17 10 15 14 -10 26
-21 10 -21 10 -6 -3z"/>
<path d="M2555 449 c-11 -16 -1 -19 13 -3 7 8 8 14 3 14 -5 0 -13 -5 -16 -11z"/>
<path d="M2593 445 c0 -8 4 -12 9 -9 5 3 6 10 3 15 -9 13 -12 11 -12 -6z"/>
<path d="M1990 440 c0 -5 5 -10 10 -10 6 0 10 5 10 10 0 6 -4 10 -10 10 -5 0
-10 -4 -10 -10z"/>
<path d="M2770 441 c0 -6 4 -13 10 -16 6 -3 7 1 4 9 -7 18 -14 21 -14 7z"/>
<path d="M2011 404 c0 -11 3 -14 6 -6 3 7 2 16 -1 19 -3 4 -6 -2 -5 -13z"/>
<path d="M995 361 c-3 -5 -2 -12 3 -15 5 -3 9 1 9 9 0 17 -3 19 -12 6z"/>
<path d="M3015 360 c3 -5 8 -10 11 -10 2 0 4 5 4 10 0 6 -5 10 -11 10 -5 0 -7
-4 -4 -10z"/>
<path d="M2304 330 c0 -13 4 -16 10 -10 7 7 7 13 0 20 -6 6 -10 3 -10 -10z"/>
<path d="M2264 326 c-16 -12 -17 -17 -6 -28 11 -11 12 -10 6 6 -6 15 -4 18 8
14 9 -4 15 0 15 8 0 17 1 17 -23 0z"/>
<path d="M1075 320 c3 -5 8 -10 11 -10 2 0 4 5 4 10 0 6 -5 10 -11 10 -5 0 -7
-4 -4 -10z"/>
<path d="M1679 298 c-5 -18 -6 -38 -1 -34 7 8 12 36 6 36 -2 0 -4 -1 -5 -2z"/>
<path d="M1790 286 c0 -2 7 -7 16 -10 8 -3 12 -2 9 4 -6 10 -25 14 -25 6z"/>
<path d="M2055 280 c3 -5 8 -10 11 -10 2 0 4 5 4 10 0 6 -5 10 -11 10 -5 0 -7
-4 -4 -10z"/>
<path d="M2305 280 c-3 -6 1 -7 9 -4 18 7 21 14 7 14 -6 0 -13 -4 -16 -10z"/>
<path d="M2115 240 c3 -5 8 -10 11 -10 2 0 4 5 4 10 0 6 -5 10 -11 10 -5 0 -7
-4 -4 -10z"/>
<path d="M1394 196 c1 -8 5 -18 8 -22 4 -3 5 1 4 10 -1 8 -5 18 -8 22 -4 3 -5
-1 -4 -10z"/>
<path d="M2550 190 c-9 -6 -10 -10 -3 -10 6 0 15 5 18 10 8 12 4 12 -15 0z"/>
<path d="M1433 183 c4 -3 1 -13 -6 -22 -11 -14 -10 -14 5 -2 16 12 16 31 1 31
-4 0 -3 -3 0 -7z"/>
<path d="M1476 167 c3 -8 11 -14 19 -14 20 0 19 4 -5 17 -15 8 -18 8 -14 -3z"/>
<path d="M2517 173 c-10 -9 -9 -23 1 -23 5 0 9 7 9 15 0 17 -1 18 -10 8z"/>
</g>
</svg>
